HIERARCHY
ROOT hip
{
  OFFSET 5.70873 43.8894 -1.52928
  CHANNELS 6 Xposition Yposition Zposition Zrotation Xrotation Yrotation
  JOINT abdomen
  {
    OFFSET 0 5.99393 0.287273
    CHANNELS 6 Xposition Yposition Zposition Zrotation Xrotation Yrotation
    JOINT chest
    {
      OFFSET 0 6.65865 -0.856112
      CHANNELS 6 Xposition Yposition Zposition Zrotation Xrotation Yrotation
      JOINT neck
      {
        OFFSET 0 8.65624 -1.42685
        CHANNELS 6 Xposition Yposition Zposition Zrotation Xrotation Yrotation
        JOINT head
        {
          OFFSET 0 3.80999 -0.190247
          CHANNELS 6 Xposition Yposition Zposition Zrotation Xrotation Yrotation
          End Site
          {
            OFFSET 0 0 0
          }
        }
      }
      JOINT rCollar
      {
        OFFSET -1.4963 7.5744 -1.52136
        CHANNELS 6 Xposition Yposition Zposition Zrotation Xrotation Yrotation
        JOINT rShldr
        {
          OFFSET -5.47506 -0.905672 0.485692
          CHANNELS 6 Xposition Yposition Zposition Zrotation Xrotation Yrotation
          JOINT rForeArm
          {
            OFFSET -11.3069 -0.201091 0.618544
            CHANNELS 6 Xposition Yposition Zposition Zrotation Xrotation Yrotation
            JOINT rHand
            {
              OFFSET -9.61414 -0.254739 3.48553
              CHANNELS 6 Xposition Yposition Zposition Zrotation Xrotation Yrotation
              JOINT rThumb1
              {
                OFFSET 0.176263 -0.07068 1.26622
                CHANNELS 6 Xposition Yposition Zposition Zrotation Xrotation Yrotation
                JOINT rThumb2
                {
                  OFFSET -1.04683 -0.546484 1.82182
                  CHANNELS 6 Xposition Yposition Zposition Zrotation Xrotation Yrotation
                  JOINT rThumb3
                  {
                    OFFSET -0.993472 -0.621916 0.655506
                    CHANNELS 6 Xposition Yposition Zposition Zrotation Xrotation Yrotation
                    End Site
                    {
                      OFFSET -0.996134 -0.66263 0.644615
                    }
                  }
                }
              }
              JOINT rIndex1
              {
                OFFSET -2.64253 0.566363 2.4162
                CHANNELS 6 Xposition Yposition Zposition Zrotation Xrotation Yrotation
                JOINT rIndex2
                {
                  OFFSET -1.39394 -0.635138 0.899356
                  CHANNELS 6 Xposition Yposition Zposition Zrotation Xrotation Yrotation
                  JOINT rIndex3
                  {
                    OFFSET -0.622395 -0.856016 0.402182
                    CHANNELS 6 Xposition Yposition Zposition Zrotation Xrotation Yrotation
                    End Site
                    {
                      OFFSET -0.472476 -0.801802 0.34216
                    }
                  }
                }
              }
              JOINT rMid1
              {
                OFFSET -3.20814 0.514427 1.52547
                CHANNELS 6 Xposition Yposition Zposition Zrotation Xrotation Yrotation
                JOINT rMid2
                {
                  OFFSET -1.56545 -0.497974 0.68919
                  CHANNELS 6 Xposition Yposition Zposition Zrotation Xrotation Yrotation
                  JOINT rMid3
                  {
                    OFFSET -0.679943 -1.17582 0.444246
                    CHANNELS 6 Xposition Yposition Zposition Zrotation Xrotation Yrotation
                    End Site
                    {
                      OFFSET -0.343874 -0.941341 0.267611
                    }
                  }
                }
              }
              JOINT rRing1
              {
                OFFSET -3.47877 0.200518 0.597719
                CHANNELS 6 Xposition Yposition Zposition Zrotation Xrotation Yrotation
                JOINT rRing2
                {
                  OFFSET -1.28208 -0.53155 0.44672
                  CHANNELS 6 Xposition Yposition Zposition Zrotation Xrotation Yrotation
                  JOINT rRing3
                  {
                    OFFSET -0.710288 -0.970167 0.4032
                    CHANNELS 6 Xposition Yposition Zposition Zrotation Xrotation Yrotation
                    End Site
                    {
                      OFFSET -0.403228 -0.950952 0.378354
                    }
                  }
                }
              }
              JOINT rPinky1
              {
                OFFSET -3.42483 -0.278904 -0.240415
                CHANNELS 6 Xposition Yposition Zposition Zrotation Xrotation Yrotation
                JOINT rPinky2
                {
                  OFFSET -1.05787 -0.635999 0.156459
                  CHANNELS 6 Xposition Yposition Zposition Zrotation Xrotation Yrotation
                  JOINT rPinky3
                  {
                    OFFSET -0.42815 -0.754232 0.287187
                    CHANNELS 6 Xposition Yposition Zposition Zrotation Xrotation Yrotation
                    End Site
                    {
                      OFFSET -0.235717 -0.725605 0.279416
                    }
                  }
                }
              }
            }
          }
        }
      }
      JOINT lCollar
      {
        OFFSET 1.4963 7.5744 -1.52136
        CHANNELS 6 Xposition Yposition Zposition Zrotation Xrotation Yrotation
        JOINT lShldr
        {
          OFFSET 5.47506 -0.905672 0.485692
          CHANNELS 6 Xposition Yposition Zposition Zrotation Xrotation Yrotation
          JOINT lForeArm
          {
            OFFSET 11.3069 -0.201091 0.618544
            CHANNELS 6 Xposition Yposition Zposition Zrotation Xrotation Yrotation
            JOINT lHand
            {
              OFFSET 9.61414 -0.254739 3.48553
              CHANNELS 6 Xposition Yposition Zposition Zrotation Xrotation Yrotation
              JOINT lThumb1
              {
                OFFSET -0.176263 -0.07068 1.26622
                CHANNELS 6 Xposition Yposition Zposition Zrotation Xrotation Yrotation
                JOINT lThumb2
                {
                  OFFSET 1.04683 -0.546484 1.82182
                  CHANNELS 6 Xposition Yposition Zposition Zrotation Xrotation Yrotation
                  JOINT lThumb3
                  {
                    OFFSET 0.993472 -0.621916 0.655506
                    CHANNELS 6 Xposition Yposition Zposition Zrotation Xrotation Yrotation
                    End Site
                    {
                      OFFSET 0.996134 -0.66263 0.644615
                    }
                  }
                }
              }
              JOINT lIndex1
              {
                OFFSET 2.64253 0.566363 2.4162
                CHANNELS 6 Xposition Yposition Zposition Zrotation Xrotation Yrotation
                JOINT lIndex2
                {
                  OFFSET 1.39394 -0.635138 0.899356
                  CHANNELS 6 Xposition Yposition Zposition Zrotation Xrotation Yrotation
                  JOINT lIndex3
                  {
                    OFFSET 0.622395 -0.856016 0.402182
                    CHANNELS 6 Xposition Yposition Zposition Zrotation Xrotation Yrotation
                    End Site
                    {
                      OFFSET 0.472476 -0.801802 0.34216
                    }
                  }
                }
              }
              JOINT lMid1
              {
                OFFSET 3.20814 0.514427 1.52547
                CHANNELS 6 Xposition Yposition Zposition Zrotation Xrotation Yrotation
                JOINT lMid2
                {
                  OFFSET 1.56545 -0.497974 0.68919
                  CHANNELS 6 Xposition Yposition Zposition Zrotation Xrotation Yrotation
                  JOINT lMid3
                  {
                    OFFSET 0.679943 -1.17582 0.444246
                    CHANNELS 6 Xposition Yposition Zposition Zrotation Xrotation Yrotation
                    End Site
                    {
                      OFFSET 0.343874 -0.941341 0.267611
                    }
                  }
                }
              }
              JOINT lRing1
              {
                OFFSET 3.47877 0.200518 0.597719
                CHANNELS 6 Xposition Yposition Zposition Zrotation Xrotation Yrotation
                JOINT lRing2
                {
                  OFFSET 1.28208 -0.53155 0.44672
                  CHANNELS 6 Xposition Yposition Zposition Zrotation Xrotation Yrotation
                  JOINT lRing3
                  {
                    OFFSET 0.710288 -0.970167 0.4032
                    CHANNELS 6 Xposition Yposition Zposition Zrotation Xrotation Yrotation
                    End Site
                    {
                      OFFSET 0.403228 -0.950952 0.378354
                    }
                  }
                }
              }
              JOINT lPinky1
              {
                OFFSET 3.42483 -0.278904 -0.240415
                CHANNELS 6 Xposition Yposition Zposition Zrotation Xrotation Yrotation
                JOINT lPinky2
                {
                  OFFSET 1.05787 -0.635999 0.156459
                  CHANNELS 6 Xposition Yposition Zposition Zrotation Xrotation Yrotation
                  JOINT lPinky3
                  {
                    OFFSET 0.42815 -0.754232 0.287187
                    CHANNELS 6 Xposition Yposition Zposition Zrotation Xrotation Yrotation
                    End Site
                    {
                      OFFSET 0.235717 -0.725605 0.279416
                    }
                  }
                }
              }
            }
          }
        }
      }
    }
  }
  JOINT rThigh
  {
    OFFSET -4.17848 -1.02486 0.046356
    CHANNELS 6 Xposition Yposition Zposition Zrotation Xrotation Yrotation
    JOINT rShin
    {
      OFFSET 1.27155 -17.465 -0.237699
      CHANNELS 6 Xposition Yposition Zposition Zrotation Xrotation Yrotation
      JOINT rFoot
      {
        OFFSET 0.529163 -17.3815 -1.19582
        CHANNELS 6 Xposition Yposition Zposition Zrotation Xrotation Yrotation
        JOINT rToe
        {
          OFFSET -0.711591 -4.4863 4.0596
          CHANNELS 6 Xposition Yposition Zposition Zrotation Xrotation Yrotation
          End Site
          {
            OFFSET -0.869915 -1.10655 1.99006
          }
        }
      }
    }
  }
  JOINT lThigh
  {
    OFFSET 4.17848 -1.02486 0.046356
    CHANNELS 6 Xposition Yposition Zposition Zrotation Xrotation Yrotation
    JOINT lShin
    {
      OFFSET -1.27155 -17.465 -0.237699
      CHANNELS 6 Xposition Yposition Zposition Zrotation Xrotation Yrotation
      JOINT lFoot
      {
        OFFSET -0.529163 -17.3815 -1.19582
        CHANNELS 6 Xposition Yposition Zposition Zrotation Xrotation Yrotation
        JOINT lToe
        {
          OFFSET 0.711591 -4.4863 4.0596
          CHANNELS 6 Xposition Yposition Zposition Zrotation Xrotation Yrotation
          End Site
          {
            OFFSET 0.869915 -1.10655 1.99006
          }
        }
      }
    }
  }
}
MOTION
Frames:	4
Frame Time:	0.0333333
8.60706 50.4793 2.18486 -174.305 -70.7669 166.106 0 5.99393 0.287273 8.11049 15.9846 -2.46258 0 6.65865 -0.856112 18.0501 31.3971 -7.82315 3.55271e-015 8.65624 -1.42685 -1.97088 -7.83581 -48.9039 0 3.80999 -0.190247 13.3154 3.48524 -33.4539 -1.4963 7.5744 -1.52136 -8.09295 -1.10474 4.11531 -5.47506 -0.905672 0.485692 35.3098 21.8658 60.6786 -11.3069 -0.201091 0.618544 22.8721 -31.9551 51.0747 -9.61414 -0.254739 3.48553 5.58462 -46.5013 -32.9466 0.176263 -0.07068 1.26622 -27.0717 34.1213 37.4742 -1.04683 -0.546484 1.82182 3.31222 -2.96562 9.24488 -0.993472 -0.621916 0.655506 -4.32711 5.93882 -14.9479 -2.64253 0.566363 2.4162 13.4016 5.9201 -12.0725 -1.39394 -0.635138 0.899356 44.7396 8.15939 -10.1718 -0.622395 -0.856016 0.402182 45.8626 8.24912 -10.4911 -3.20814 0.514427 1.52547 23.7232 4.82345 -5.4126 -1.56545 -0.497974 0.68919 52.741 10.5331 -13.0891 -0.679943 -1.17582 0.444246 15.4526 4.36313 -2.78809 -3.47877 0.200518 0.597719 26.7805 -5.27618 -17.2647 -1.28208 -0.53155 0.44672 34.7773 9.22436 -9.29031 -0.710288 -0.970167 0.4032 36.4295 9.49886 -9.84347 -3.42483 -0.278904 -0.240415 42.1191 -8.91019 -15.3488 -1.05787 -0.635999 0.156459 33.9221 10.0869 -8.83211 -0.42815 -0.754232 0.287187 5.31525 1.94252 -0.984893 1.4963 7.5744 -1.52136 7.19879 -2.30714 -22.6188 5.47506 -0.905672 0.485692 -44.0206 5.86069 -44.3316 11.3069 -0.201091 0.618544 -8.69331 -37.1996 -39.0972 9.61414 -0.254739 3.48553 -148.261 -79.0991 -101.765 -0.176263 -0.07068 1.26622 24.2782 38.4818 -35.5021 1.04683 -0.546484 1.82182 -6.53184 -1.24823 -11.4632 0.993472 -0.621916 0.655506 6.45118 2.66717 11.8095 2.64253 0.566363 2.4162 -5.18976 4.4831 12.5249 1.39394 -0.635138 0.899356 -36.9452 6.74317 17.0314 0.622395 -0.856016 0.402182 -38.0065 6.76618 17.5559 3.20814 0.514427 1.52547 -1.48522 -0.683599 1.67105 1.56545 -0.497974 0.68919 -44.4869 8.35695 21.4002 0.679943 -1.17582 0.444246 -9.36101 3.19903 3.99169 3.47877 0.200518 0.597719 -8.07664 -2.63753 5.9902 1.28208 -0.53155 0.44672 -14.781 5.15013 7.2948 0.710288 -0.970167 0.4032 -16.2802 5.55298 8.08472 3.42483 -0.278904 -0.240415 11.7677 -11.3031 2.60138 1.05787 -0.635999 0.156459 -18.8959 6.82263 9.38289 0.42815 -0.754232 0.287187 -9.18829 3.76103 4.34945 -4.17848 -1.02486 0.046356 -81.3906 -26.4987 -68.602 1.27155 -17.465 -0.237699 -0.984095 13.4351 1.67379 0.529163 -17.3815 -1.19582 1.15308 11.0369 -2.85197 -0.711591 -4.4863 4.0596 0.31749 2.31143 -0.0683448 4.17848 -1.02486 0.046356 109.465 -44.9955 107.138 -1.27155 -17.465 -0.237699 0.268098 1.3473 0.412865 -0.529163 -17.3815 -1.19582 2.12995 10.6248 -5.44655 0.711591 -4.4863 4.0596 0.58208 -4.6582 0.258466 
7.954 49.734 2.66604 -153.46 -72.5302 -171.501 3.55271e-015 5.99393 0.287273 8.21069 15.3556 -2.19128 -3.55271e-015 6.65865 -0.856112 18.052 30.1873 -7.12314 0 8.65624 -1.42685 -1.99102 -8.75311 -49.4343 0 3.80999 -0.190247 13.5992 4.02059 -33.4573 -1.4963 7.5744 -1.52136 -8.18575 -1.10558 3.63539 -5.47506 -0.905672 0.485692 34.756 22.3664 60.3507 -11.3069 -0.201091 0.618544 22.9312 -31.8073 53.4637 -9.61414 -0.254739 3.48553 6.64299 -48.5381 -31.907 0.176263 -0.07068 1.26622 -27.0717 34.1214 37.4742 -1.04683 -0.546484 1.82182 3.31221 -2.96562 9.24489 -0.993472 -0.621916 0.655506 -4.32711 5.93883 -14.9479 -2.64253 0.566363 2.4162 13.4015 5.92014 -12.0725 -1.39394 -0.635138 0.899356 44.7396 8.15939 -10.1718 -0.622395 -0.856016 0.402182 45.8626 8.24913 -10.4911 -3.20814 0.514427 1.52547 23.7231 4.82355 -5.41263 -1.56545 -0.497974 0.68919 52.741 10.5331 -13.0891 -0.679943 -1.17582 0.444246 15.4525 4.36313 -2.78808 -3.47877 0.200518 0.597719 26.7805 -5.27615 -17.2647 -1.28208 -0.53155 0.44672 34.7773 9.22435 -9.29031 -0.710288 -0.970167 0.4032 36.4295 9.49886 -9.84346 -3.42483 -0.278904 -0.240415 42.1191 -8.91011 -15.3489 -1.05787 -0.635999 0.156459 33.9221 10.0868 -8.8321 -0.42815 -0.754232 0.287187 5.31525 1.94255 -0.984883 1.4963 7.5744 -1.52136 7.41343 -2.33026 -22.7828 5.47506 -0.905672 0.485692 -43.4957 5.80019 -43.6985 11.3069 -0.201091 0.618544 -9.68502 -37.9008 -42.8769 9.61414 -0.254739 3.48553 -152.142 -81.5213 -106.368 -0.176263 -0.07068 1.26622 24.2782 38.4818 -35.5021 1.04683 -0.546484 1.82182 -6.53188 -1.24829 -11.4632 0.993472 -0.621916 0.655506 6.4512 2.66715 11.8095 2.64253 0.566363 2.4162 -5.18976 4.48308 12.5249 1.39394 -0.635138 0.899356 -36.9452 6.74316 17.0314 0.622395 -0.856016 0.402182 -38.0065 6.76613 17.5558 3.20814 0.514427 1.52547 -1.48524 -0.68361 1.67106 1.56545 -0.497974 0.68919 -44.4869 8.35688 21.4001 0.679943 -1.17582 0.444246 -9.36102 3.19894 3.99175 3.47877 0.200518 0.597719 -8.07667 -2.63759 5.9902 1.28208 -0.53155 0.44672 -14.781 5.15012 7.29481 0.710288 -0.970167 0.4032 -16.2802 5.55293 8.08474 3.42483 -0.278904 -0.240415 11.7677 -11.3032 2.60141 1.05787 -0.635999 0.156459 -18.8959 6.82257 9.38292 0.42815 -0.754232 0.287187 -9.18829 3.76104 4.34945 -4.17848 -1.02486 0.046356 -82.1167 -27.7354 -66.1002 1.27155 -17.465 -0.237699 0.165451 20.8075 1.47628 0.529163 -17.3815 -1.19582 1.52325 11.9314 -1.1191 -0.711591 -4.4863 4.0596 0.432527 3.14307 -0.0961191 4.17848 -1.02486 0.046356 108.085 -47.4787 105.177 -1.27155 -17.465 -0.237699 0.268989 0.505114 0.397203 -0.529163 -17.3815 -1.19582 1.08291 12.2921 -6.07213 0.711591 -4.4863 4.0596 0.524584 -4.20664 0.231273 
7.26102 48.9587 3.05317 -130.789 -71.442 -147.57 0 5.99393 0.287273 8.34193 14.8257 -2.00374 0 6.65865 -0.856112 18.1733 29.1576 -6.63862 0 8.65624 -1.42685 -1.98976 -9.64219 -49.4057 0 3.80999 -0.190247 13.5146 4.36283 -33.4081 -1.4963 7.5744 -1.52136 -8.13142 -1.09489 3.29734 -5.47506 -0.905672 0.485692 34.6655 22.4375 60.0772 -11.3069 -0.201091 0.618544 23.0138 -31.3973 55.626 -9.61414 -0.254739 3.48553 7.81144 -50.1842 -30.8076 0.176263 -0.07068 1.26622 -27.0716 34.1213 37.4741 -1.04683 -0.546484 1.82182 3.31218 -2.9656 9.24489 -0.993472 -0.621916 0.655506 -4.32712 5.93885 -14.9479 -2.64253 0.566363 2.4162 13.4016 5.92003 -12.0724 -1.39394 -0.635138 0.899356 44.7396 8.15939 -10.1719 -0.622395 -0.856016 0.402182 45.8626 8.24917 -10.4911 -3.20814 0.514427 1.52547 23.7232 4.82335 -5.41256 -1.56545 -0.497974 0.68919 52.7411 10.5331 -13.0891 -0.679943 -1.17582 0.444246 15.4526 4.36316 -2.78808 -3.47877 0.200518 0.597719 26.7805 -5.27614 -17.2647 -1.28208 -0.53155 0.44672 34.7773 9.22435 -9.2903 -0.710288 -0.970167 0.4032 36.4295 9.49885 -9.84345 -3.42483 -0.278904 -0.240415 42.1192 -8.91029 -15.3488 -1.05787 -0.635999 0.156459 33.9221 10.0869 -8.83211 -0.42815 -0.754232 0.287187 5.31527 1.94258 -0.984849 1.4963 7.5744 -1.52136 7.81995 -2.34745 -22.7489 5.47506 -0.905672 0.485692 -42.6747 5.43208 -43.1857 11.3069 -0.201091 0.618544 -10.8666 -38.4038 -46.8373 9.61414 -0.254739 3.48553 -163.834 -84.2305 -118.951 -0.176263 -0.07068 1.26622 24.2782 38.4818 -35.5021 1.04683 -0.546484 1.82182 -6.53181 -1.24817 -11.4632 0.993472 -0.621916 0.655506 6.45118 2.66713 11.8095 2.64253 0.566363 2.4162 -5.18977 4.48307 12.5249 1.39394 -0.635138 0.899356 -36.9452 6.74314 17.0314 0.622395 -0.856016 0.402182 -38.0065 6.76605 17.5558 3.20814 0.514427 1.52547 -1.48523 -0.683614 1.67105 1.56545 -0.497974 0.68919 -44.4869 8.35705 21.4002 0.679943 -1.17582 0.444246 -9.36101 3.1991 3.99163 3.47877 0.200518 0.597719 -8.0767 -2.63766 5.99017 1.28208 -0.53155 0.44672 -14.781 5.15004 7.29484 0.710288 -0.970167 0.4032 -16.2802 5.55289 8.08478 3.42483 -0.278904 -0.240415 11.7678 -11.303 2.60137 1.05787 -0.635999 0.156459 -18.8959 6.82248 9.38293 0.42815 -0.754232 0.287187 -9.18829 3.76102 4.34946 -4.17848 -1.02486 0.046356 -82.5078 -29.4895 -62.1828 1.27155 -17.465 -0.237699 1.64617 28.6477 1.10581 0.529163 -17.3815 -1.19582 3.11223 12.6283 -0.647764 -0.711591 -4.4863 4.0596 0.602392 4.36389 -0.139994 4.17848 -1.02486 0.046356 106.276 -50.1531 103.754 -1.27155 -17.465 -0.237699 0.229986 -0.811208 0.441402 -0.529163 -17.3815 -1.19582 0.138189 14.8069 -7.49761 0.711591 -4.4863 4.0596 0.579701 -4.6396 0.25735 
6.54736 48.1503 3.31632 -112.777 -67.5597 -128.673 -3.55271e-015 5.99393 0.287273 8.55111 14.3183 -1.92012 0 6.65865 -0.856112 18.4963 28.1496 -6.40045 7.10543e-015 8.65624 -1.42685 -1.98534 -9.97579 -49.2825 -7.10543e-015 3.80999 -0.190247 13.5231 4.39395 -33.3927 -1.4963 7.5744 -1.52136 -8.25519 -1.10028 2.93641 -5.47506 -0.905672 0.485692 34.6605 22.5703 60.1044 -11.3069 -0.201091 0.618544 23.3645 -31.0758 57.4059 -9.61414 -0.254739 3.48553 9.38738 -51.4915 -29.2164 0.176263 -0.07068 1.26622 -27.0716 34.1213 37.4741 -1.04683 -0.546484 1.82182 3.31218 -2.96556 9.24491 -0.993472 -0.621916 0.655506 -4.32715 5.93886 -14.9479 -2.64253 0.566363 2.4162 13.4016 5.92003 -12.0725 -1.39394 -0.635138 0.899356 44.7396 8.15944 -10.1719 -0.622395 -0.856016 0.402182 45.8625 8.24925 -10.4912 -3.20814 0.514427 1.52547 23.7232 4.82335 -5.41255 -1.56545 -0.497974 0.68919 52.741 10.5331 -13.0892 -0.679943 -1.17582 0.444246 15.4525 4.36321 -2.78804 -3.47877 0.200518 0.597719 26.7804 -5.27608 -17.2647 -1.28208 -0.53155 0.44672 34.7773 9.22438 -9.29029 -0.710288 -0.970167 0.4032 36.4295 9.49887 -9.84345 -3.42483 -0.278904 -0.240415 42.1192 -8.91027 -15.3488 -1.05787 -0.635999 0.156459 33.9221 10.0869 -8.8321 -0.42815 -0.754232 0.287187 5.31524 1.94263 -0.984784 1.4963 7.5744 -1.52136 7.67891 -2.36832 -23.1138 5.47506 -0.905672 0.485692 -41.7951 4.99956 -42.0456 11.3069 -0.201091 0.618544 -12.3759 -39.2828 -51.5019 9.61414 -0.254739 3.48553 149.574 -87.0296 -166.381 -0.176263 -0.07068 1.26622 24.2782 38.4818 -35.5021 1.04683 -0.546484 1.82182 -6.53181 -1.24817 -11.4632 0.993472 -0.621916 0.655506 6.45116 2.6671 11.8095 2.64253 0.566363 2.4162 -5.18978 4.48306 12.5249 1.39394 -0.635138 0.899356 -36.9452 6.74311 17.0314 0.622395 -0.856016 0.402182 -38.0065 6.76621 17.5559 3.20814 0.514427 1.52547 -1.48523 -0.683591 1.67105 1.56545 -0.497974 0.68919 -44.4868 8.35702 21.4002 0.679943 -1.17582 0.444246 -9.36101 3.1991 3.99164 3.47877 0.200518 0.597719 -8.07662 -2.63749 5.99021 1.28208 -0.53155 0.44672 -14.7811 5.14995 7.29486 0.710288 -0.970167 0.4032 -16.2802 5.55299 8.08468 3.42483 -0.278904 -0.240415 11.7677 -11.303 2.60137 1.05787 -0.635999 0.156459 -18.8959 6.82265 9.38288 0.42815 -0.754232 0.287187 -9.18828 3.76099 4.34947 -4.17848 -1.02486 0.046356 -82.1218 -31.5739 -58.061 1.27155 -17.465 -0.237699 3.65724 36.2694 -1.21167 0.529163 -17.3815 -1.19582 4.2189 14.2162 0.593226 -0.711591 -4.4863 4.0596 0.724992 5.23957 -0.173761 4.17848 -1.02486 0.046356 103.831 -52.9519 101.488 -1.27155 -17.465 -0.237699 0.133982 -1.80336 0.580527 -0.529163 -17.3815 -1.19582 0.562433 17.7657 -10.3627 0.711591 -4.4863 4.0596 0.54206 -4.34413 0.239499 
